<svg xmlns="http://www.w3.org/2000/svg" xmlns:xlink="http://www.w3.org/1999/xlink" version="1.1" id="Layer_1" x="0px" y="0px" viewBox="0 0 87.8 85.3" style="enable-background:new 0 0 307.8 85.3;" xml:space="preserve">
<style type="text/css">
	.st0{fill:#083766;}
	.st1{fill:#FFFFFF;}
	.st2{fill:none;stroke:#1250A9;stroke-width:1.9704;stroke-miterlimit:10;}
	.st3{fill:none;stroke:#1859D1;stroke-width:1.9704;stroke-miterlimit:10;}
	.st4{fill:none;stroke:#1853FF;stroke-width:1.9704;stroke-miterlimit:10;}
	.st5{fill:#1853FF;}
</style>
<g>
	<path class="st0" d="M85,41.6L85,41.6l-3.6-2.2c0-0.4-0.1-0.7-0.1-1l3.1-2.8c0.3-0.3,0.4-0.7,0.4-1.1c-0.1-0.4-0.4-0.8-0.8-0.9   L80.1,32c-0.1-0.3-0.2-0.7-0.3-1l2.4-3.4c0.3-0.3,0.3-0.8,0.1-1.2c-0.2-0.4-0.5-0.7-0.9-0.7l-4.1-0.7c-0.2-0.3-0.3-0.6-0.5-0.9   l1.7-3.8c0.2-0.4,0.1-0.8-0.1-1.2c-0.2-0.4-0.6-0.6-1.1-0.5l-4.2,0.1c-0.2-0.3-0.4-0.5-0.7-0.8l1-4.1c0.1-0.4,0-0.8-0.3-1.1   c-0.3-0.3-0.7-0.4-1.2-0.3l-4.1,1c-0.3-0.2-0.5-0.4-0.8-0.7l0.2-4.2c0-0.4-0.2-0.8-0.5-1.1c-0.4-0.2-0.8-0.3-1.2-0.1l-3.8,1.7   c-0.3-0.2-0.6-0.3-0.9-0.5l-0.7-4.1c-0.1-0.4-0.4-0.8-0.7-0.9c-0.4-0.2-0.8-0.1-1.2,0.1l-3.4,2.4c-0.3-0.1-0.7-0.2-1-0.3l-1.5-3.9   c-0.1-0.4-0.5-0.7-0.9-0.8c-0.4-0.1-0.8,0.1-1.1,0.4l-2.8,3.1c-0.3,0-0.7-0.1-1-0.1l-2.2-3.6c-0.2-0.4-0.6-0.6-1-0.6   c-0.4,0-0.8,0.2-1,0.6l-2.2,3.6c-0.3,0-0.7,0.1-1,0.1l-2.9-3.1c-0.3-0.3-0.7-0.4-1.1-0.4c-0.4,0.1-0.8,0.4-0.9,0.8l-1.5,3.9   c-0.3,0.1-0.7,0.2-1,0.3l-3.4-2.4c-0.3-0.3-0.8-0.3-1.2-0.1c-0.4,0.2-0.7,0.5-0.7,0.9l-0.7,4.1c-0.3,0.2-0.6,0.3-0.9,0.5L21,7.4   c-0.4-0.2-0.8-0.1-1.2,0.1c-0.4,0.2-0.6,0.6-0.5,1.1l0.1,4.2c-0.3,0.2-0.5,0.4-0.8,0.7l-4.1-1c-0.4-0.1-0.9,0-1.1,0.3   c-0.3,0.3-0.4,0.7-0.3,1.1l1,4.1c-0.2,0.3-0.4,0.5-0.7,0.8l-4.2-0.1c-0.4,0-0.8,0.2-1.1,0.5c-0.2,0.4-0.3,0.8-0.1,1.2l1.7,3.8   c-0.2,0.3-0.3,0.6-0.5,0.9l-4.1,0.7c-0.4,0.1-0.8,0.4-0.9,0.7c-0.2,0.4-0.1,0.8,0.1,1.2L6.8,31c-0.1,0.3-0.2,0.7-0.3,1l-3.9,1.5   c-0.4,0.1-0.7,0.5-0.8,0.9c-0.1,0.4,0.1,0.8,0.4,1.1l3.1,2.8c0,0.3-0.1,0.7-0.1,1l-3.6,2.2h0c-0.4,0.2-0.6,0.6-0.6,1   c0,0.4,0.2,0.8,0.6,1l3.5,2.2c0,0.3,0.1,0.7,0.1,1l-3.1,2.8c-0.3,0.3-0.4,0.7-0.4,1.1c0.1,0.4,0.4,0.8,0.8,0.9l3.9,1.5   c0.1,0.3,0.2,0.7,0.3,1l-2.4,3.4c-0.2,0.3-0.3,0.8-0.1,1.2c0.1,0.4,0.5,0.7,0.9,0.7l4.1,0.7c0.2,0.3,0.3,0.6,0.5,0.9L8,65   c-0.2,0.4-0.1,0.8,0.1,1.2c0.2,0.4,0.6,0.6,1.1,0.5l4.2-0.1c0.2,0.3,0.4,0.5,0.7,0.8l-1,4.1c-0.1,0.4,0,0.8,0.3,1.1   c0.3,0.3,0.7,0.4,1.1,0.3l4.1-1c0.3,0.2,0.5,0.4,0.8,0.7l-0.1,4.2c0,0.4,0.2,0.8,0.6,1.1c0.3,0.2,0.8,0.3,1.2,0.1l3.8-1.7   c0.3,0.2,0.6,0.3,0.9,0.5l0.7,4.1c0.1,0.4,0.3,0.8,0.7,0.9c0.4,0.2,0.8,0.1,1.2-0.1l3.4-2.4c0.3,0.1,0.7,0.2,1,0.3l1.5,3.9   c0.1,0.4,0.5,0.7,0.9,0.8c0.4,0.1,0.8-0.1,1.1-0.4l2.8-3.1c0.4,0,0.7,0.1,1,0.1l2.2,3.5c0.2,0.4,0.6,0.6,1.1,0.6   c0.4,0,0.8-0.2,1-0.6l2.2-3.5c0.3,0,0.7-0.1,1-0.1l2.9,3.1c0.3,0.3,0.7,0.4,1.1,0.4c0.4-0.1,0.8-0.4,0.9-0.8l1.5-3.9   c0.3-0.1,0.7-0.2,1-0.3l3.4,2.4c0.4,0.2,0.8,0.3,1.2,0.1c0.4-0.2,0.7-0.5,0.7-0.9l0.7-4.1c0.3-0.2,0.6-0.3,0.9-0.5l3.8,1.7   c0.4,0.2,0.8,0.1,1.2-0.1c0.4-0.2,0.6-0.6,0.5-1.1l-0.2-4.2c0.3-0.2,0.5-0.4,0.8-0.7l4.1,1c0.4,0.1,0.9,0,1.1-0.3   c0.3-0.3,0.4-0.7,0.3-1.1l-1-4.1c0.2-0.3,0.4-0.5,0.7-0.8l4.2,0.1c0.4,0,0.8-0.2,1.1-0.5c0.2-0.4,0.3-0.8,0.1-1.2l-1.7-3.8   c0.2-0.3,0.3-0.6,0.5-0.9l4.1-0.7c0.4-0.1,0.8-0.3,0.9-0.7c0.2-0.4,0.1-0.8-0.1-1.2l-2.4-3.4c0.1-0.3,0.2-0.7,0.3-1l3.9-1.5   c0.4-0.2,0.7-0.5,0.8-0.9c0.1-0.4-0.1-0.8-0.4-1.1l-3.1-2.8c0-0.3,0.1-0.7,0.1-1l3.6-2.2c0.4-0.2,0.6-0.6,0.6-1   C85.6,42.2,85.4,41.8,85,41.6z M62.9,66.4c-1.1,0.9-2.3,1.8-3.6,2.6c-4.7,2.9-10.2,4.5-16.1,4.5c-3.4,0-6.6-0.5-9.7-1.5   c-0.1,0-0.2-0.1-0.4-0.1C32,71.5,31,71.1,30,70.6v0c-1.1-0.5-2.2-1.1-3.2-1.7c-1.2-0.7-2.4-1.6-3.4-2.5c-0.9-0.7-1.7-1.5-2.5-2.3   l-0.1,0l-0.1,0c-1-1-2-2.2-2.9-3.4c0,0,0.1,0,0.1,0c-3.3-4.5-5.5-10-5.9-16h0c0-0.2,0-0.3,0-0.5c0-0.2,0-0.3,0-0.4   c0-0.1,0-0.3,0-0.4c0-0.3,0-0.5,0-0.8v-0.1l0,0c0-0.8,0-1.6,0.1-2.4c0-0.2,0-0.4,0.1-0.7h0l0.2-0.1c0.1-1.2,0.3-2.4,0.5-3.5   c0.3-1.6,0.8-3.2,1.4-4.7c0.5-1.3,1.1-2.6,1.8-3.8l-0.1-0.1c2.3-4,5.4-7.4,9.1-10c0.1-0.1,0.3-0.2,0.4-0.3c4.4-3,9.6-5,15.2-5.4   c0.8-0.1,1.7-0.1,2.5-0.1c0.8,0,1.5,0,2.2,0.1c12.2,0.9,22.4,8.7,26.7,19.6c0.6,1.5,1.1,3.1,1.5,4.8c0.5,2.1,0.7,4.4,0.7,6.6   C74.3,52.1,69.9,60.7,62.9,66.4z"/>
	<circle class="st1" cx="43.3" cy="42.7" r="33.2"/>
	<g>
		<ellipse class="st2" cx="43.3" cy="42.7" rx="27" ry="13.5"/>
		<ellipse transform="matrix(0.8957 -0.4447 0.4447 0.8957 -14.3862 23.6936)" class="st3" cx="43.3" cy="42.5" rx="13.5" ry="27"/>
		<path class="st4" d="M31.3,66.9c6.7,3.3,17.4-4.8,24-18.2s6.6-26.8-0.1-30.1"/>
		<ellipse transform="matrix(0.4447 -0.8957 0.8957 0.4447 -14.2784 62.5448)" class="st4" cx="43.3" cy="42.8" rx="27" ry="13.5"/>
		<path class="st3" d="M31.4,18.4c6.7-3.3,17.4,4.8,24,18.2s6.6,26.8-0.1,30.1s-17.4-4.8-24-18.2"/>
		<path class="st2" d="M70.3,42.7c0,7.4-12.1,13.5-27,13.5s-27-6-27-13.5"/>
	</g>
	<g id="Layer_x0020_1_2_">
		<g id="_1421344023328_2_">
			<path class="st0" d="M50.7,40.8L50.7,40.8c0.3-2.1-1.3-3.3-3.5-4l0.7-2.9l-1.8-0.4l-0.7,2.8C45,36.1,44.5,36,44,35.9l0.7-2.8     L43,32.6l-0.7,2.9c-0.4-0.1-0.8-0.2-1.1-0.3v0l-2.4-0.6l-0.5,1.9c0,0,1.3,0.3,1.3,0.3c0.7,0.2,0.8,0.6,0.8,1l-0.8,3.3     c0,0,0.1,0,0.2,0.1c-0.1,0-0.1,0-0.2,0l-1.2,4.6c-0.1,0.2-0.3,0.5-0.8,0.4c-0.1,0-1.3-0.3-1.3-0.3l-0.9,2l2.3,0.6     c0.4,0.1,0.8,0.2,1.3,0.3l-0.7,2.9l1.8,0.4l0.7-2.9c0.5,0.1,0.9,0.2,1.4,0.4l-0.7,2.9l1.8,0.4l0.7-2.9c3,0.6,5.3,0.3,6.2-2.4     c0.8-2.2,0-3.4-1.6-4.3C49.6,43.1,50.5,42.4,50.7,40.8z M46.7,46.4c-0.5,2.2-4.2,1-5.4,0.7l1-3.9C43.4,43.6,47.3,44.2,46.7,46.4z      M47.2,40.8c-0.5,2-3.6,1-4.6,0.7l0.9-3.5C44.6,38.2,47.8,38.7,47.2,40.8z"/>
			<path class="st0" d="M50.7,40.8L50.7,40.8c0.3-2.1-1.3-3.3-3.5-4l0.7-2.9l-1.8-0.4l-0.7,2.8C45,36.1,44.5,36,44,35.9l0.7-2.8     L43,32.6l-0.7,2.9c-0.4-0.1-0.8-0.2-1.1-0.3v0l-2.4-0.6l-0.5,1.9c0,0,1.3,0.3,1.3,0.3c0.7,0.2,0.8,0.6,0.8,1l-0.8,3.3     c0,0,0.1,0,0.2,0.1c-0.1,0-0.1,0-0.2,0l-1.2,4.6c-0.1,0.2-0.3,0.5-0.8,0.4c-0.1,0-1.3-0.3-1.3-0.3l-0.9,2l2.3,0.6     c0.4,0.1,0.8,0.2,1.3,0.3l-0.7,2.9l1.8,0.4l0.7-2.9c0.5,0.1,0.9,0.2,1.4,0.4l-0.7,2.9l1.8,0.4l0.7-2.9c3,0.6,5.3,0.3,6.2-2.4     c0.8-2.2,0-3.4-1.6-4.3C49.6,43.1,50.5,42.4,50.7,40.8z M46.7,46.4c-0.5,2.2-4.2,1-5.4,0.7l1-3.9C43.4,43.6,47.3,44.2,46.7,46.4z      M47.2,40.8c-0.5,2-3.6,1-4.6,0.7l0.9-3.5C44.6,38.2,47.8,38.7,47.2,40.8z"/>
		</g>
	</g>
</g>
</svg>